<svg width="206" height="220" viewBox="0 0 206 220" fill="none" xmlns="http://www.w3.org/2000/svg">
<rect width="206" height="220" rx="8" fill="#57CD9E"/>
<rect x="18" y="54" width="169" height="109"/>
<path d="M67.84 119.36C72.88 119.36 75.85 116.75 75.85 112.82C75.85 109.01 72.91 107.69 68.47 106.7C65.29 105.98 64.06 105.5 64.06 104C64.06 102.77 65.2 101.78 67.09 101.78C69.07 101.78 71.14 102.59 72.97 104.06L75.28 100.88C73.18 99.08 70.57 98.03 67.21 98.03C62.71 98.03 59.59 100.64 59.59 104.45C59.59 108.44 62.68 109.67 67.03 110.66C70.18 111.38 71.38 111.83 71.38 113.3C71.38 114.59 70.24 115.61 68.02 115.61C65.41 115.61 63.19 114.59 61.24 112.91L58.69 115.94C61.09 118.16 64.27 119.36 67.84 119.36ZM87.8744 103.13C85.8944 103.13 84.1844 104.03 83.2244 105.38V98.03H78.8444V119H83.2244V109.82C83.2244 108.14 84.6344 106.82 86.4644 106.82C88.2044 106.82 89.4044 108.14 89.4044 110.06V119H93.6344V109.13C93.6344 105.62 91.2344 103.13 87.8744 103.13ZM104.952 119.36C109.542 119.36 113.382 115.64 113.382 111.23C113.382 106.82 109.542 103.13 104.952 103.13C100.332 103.13 96.4621 106.82 96.4621 111.23C96.4621 115.64 100.332 119.36 104.952 119.36ZM104.952 115.67C102.612 115.67 100.662 113.63 100.662 111.23C100.662 108.83 102.612 106.82 104.952 106.82C107.262 106.82 109.212 108.83 109.212 111.23C109.212 113.63 107.262 115.67 104.952 115.67ZM123.666 115.49C121.836 115.49 120.486 114.35 119.976 112.67H131.166C131.166 106.82 128.316 103.13 123.456 103.13C118.926 103.13 115.476 106.52 115.476 111.2C115.476 115.97 119.076 119.36 123.696 119.36C125.976 119.36 128.646 118.4 130.026 116.96L127.236 114.11C126.396 114.92 124.896 115.49 123.666 115.49ZM123.636 107C125.406 107 126.546 107.99 126.966 109.52H120.036C120.606 107.96 121.986 107 123.636 107ZM139.949 119.36C143.759 119.36 146.249 117.41 146.249 114.35C146.249 110.96 143.279 110.06 140.609 109.37C138.509 108.8 137.879 108.56 137.879 107.72C137.879 107.18 138.629 106.79 139.709 106.79C141.029 106.79 142.649 107.3 144.059 108.17L145.829 105.05C144.119 103.91 141.929 103.13 139.709 103.13C136.049 103.13 133.619 105.23 133.649 108.17C133.679 111.23 136.139 112.1 139.319 112.88C140.909 113.3 142.049 113.6 142.049 114.56C142.049 115.25 141.209 115.73 140.039 115.73C137.969 115.73 136.229 114.98 134.849 113.99L132.959 117.02C134.819 118.52 137.459 119.36 139.949 119.36Z" fill="white"/>
</svg>
