<svg width="135" height="50" viewBox="0 0 135 50" fill="none" xmlns="http://www.w3.org/2000/svg">
<g clip-path="url(#clip0_1_8604)">
<path d="M42.9049 45.4667L40.3674 16.7167C40.1768 14.551 38.3924 12.9167 36.2174 12.9167C35.7178 12.9167 35.3112 13.3229 35.3112 13.8229V18.3052C35.3112 18.749 34.9758 19.1365 34.5331 19.1646C34.0477 19.1958 33.6445 18.8115 33.6445 18.3333V8.64583C33.6445 3.87812 29.7664 0 24.9987 0C20.231 0 16.3529 3.87812 16.3529 8.64583V12.9167H13.7799C11.6049 12.9167 9.82056 14.551 9.62994 16.7167L7.09244 45.4667C6.8789 47.8964 8.79483 50 11.2435 50H38.7539C41.2029 50 43.1185 47.896 42.9049 45.4667ZM20.207 44.4792H14.1654C13.7051 44.4792 13.332 44.106 13.332 43.6458C13.332 43.1856 13.7051 42.8125 14.1654 42.8125H20.207C20.6672 42.8125 21.0404 43.1856 21.0404 43.6458C21.0404 44.106 20.6672 44.4792 20.207 44.4792ZM20.207 40.3125H14.1654C13.7051 40.3125 13.332 39.9394 13.332 39.4792C13.332 39.019 13.7051 38.6458 14.1654 38.6458H20.207C20.6672 38.6458 21.0404 39.019 21.0404 39.4792C21.0404 39.9394 20.6672 40.3125 20.207 40.3125ZM31.9779 12.9167H20.5924C20.0924 12.9167 19.6862 13.3229 19.6862 13.8229V18.3052C19.6862 18.749 19.3508 19.1365 18.9081 19.1646C18.4226 19.1958 18.0195 18.8115 18.0195 18.3333V8.64583C18.0195 4.79792 21.1508 1.66667 24.9987 1.66667C28.8466 1.66667 31.9779 4.79792 31.9779 8.64583V12.9167Z" fill="#DB3022"/>
</g>
<path d="M52.2712 38H62.3792C66.0472 38 68.6792 35.872 68.6792 32.792C68.6792 30.664 67.3912 28.872 65.1512 27.864C66.8592 26.968 67.8392 25.54 67.8392 23.58C67.8392 20.78 65.4592 18.764 62.0152 18.764H52.2712V38ZM56.3872 26.52V22.292H60.9792C62.5192 22.292 63.6112 23.188 63.6112 24.392C63.6112 25.624 62.5192 26.52 60.9792 26.52H56.3872ZM56.3872 34.472V29.768H61.6232C63.2752 29.768 64.4512 30.748 64.4512 32.12C64.4512 33.492 63.2752 34.472 61.6232 34.472H56.3872ZM71.5693 38H75.6573V18.428H71.5693V38ZM85.6936 23.188C83.6776 23.188 81.6896 23.748 79.6456 24.784L81.0176 27.5C82.1656 26.912 83.4256 26.464 84.7696 26.464C87.1496 26.464 88.1016 27.808 88.1016 29.348V29.628C86.8696 29.152 85.5816 28.9 84.4056 28.9C81.0456 28.9 78.3856 30.86 78.3856 33.716C78.3856 36.488 80.7656 38.336 83.8456 38.336C85.4136 38.336 87.0656 37.72 88.1016 36.544V38H92.0496V29.348C92.0496 25.568 89.4736 23.188 85.6936 23.188ZM84.7696 35.508C83.3696 35.508 82.3336 34.78 82.3336 33.604C82.3336 32.428 83.5096 31.56 84.9936 31.56C86.1136 31.56 87.1776 31.756 88.1016 32.092V33.436C87.8216 34.78 86.3376 35.508 84.7696 35.508ZM103.867 23.188C101.991 23.188 100.367 24.028 99.4991 25.344V23.524H95.4111V38H99.4991V29.348L99.5271 29.432C99.5271 27.864 100.843 26.632 102.551 26.632C104.175 26.632 105.295 27.864 105.295 29.656V38H109.243V28.788C109.243 25.512 107.003 23.188 103.867 23.188ZM114.738 21.536C115.942 21.536 116.922 20.528 116.922 19.296C116.922 18.148 115.942 17.112 114.738 17.112C113.478 17.112 112.498 18.148 112.498 19.296C112.498 20.528 113.478 21.536 114.738 21.536ZM112.246 42.984C114.878 42.984 116.754 41.08 116.754 38.42V23.524H112.666V38C112.666 38.952 112.106 39.624 111.294 39.624C110.79 39.624 110.174 39.512 109.782 39.372L109.362 42.396C110.062 42.732 111.238 42.984 112.246 42.984ZM126.791 23.188C124.775 23.188 122.787 23.748 120.743 24.784L122.115 27.5C123.263 26.912 124.523 26.464 125.867 26.464C128.247 26.464 129.199 27.808 129.199 29.348V29.628C127.967 29.152 126.679 28.9 125.503 28.9C122.143 28.9 119.483 30.86 119.483 33.716C119.483 36.488 121.863 38.336 124.943 38.336C126.511 38.336 128.163 37.72 129.199 36.544V38H133.147V29.348C133.147 25.568 130.571 23.188 126.791 23.188ZM125.867 35.508C124.467 35.508 123.431 34.78 123.431 33.604C123.431 32.428 124.607 31.56 126.091 31.56C127.211 31.56 128.275 31.756 129.199 32.092V33.436C128.919 34.78 127.435 35.508 125.867 35.508Z" fill="#DB3022"/>
<defs>
<clipPath id="clip0_1_8604">
<rect width="50" height="50" fill="white"/>
</clipPath>
</defs>
</svg>
